<?xml version="1.0" standalone="no"?>
<!DOCTYPE svg PUBLIC "-//W3C//DTD SVG 20010904//EN"
 "http://www.w3.org/TR/2001/REC-SVG-20010904/DTD/svg10.dtd">
<svg version="1.0" xmlns="http://www.w3.org/2000/svg"
 width="300.000000pt" height="300.000000pt" viewBox="0 0 300.000000 300.000000"
 preserveAspectRatio="xMidYMid meet">
<metadata>
Created by potrace 1.10, written by Peter Selinger 2001-2011
</metadata>
<g transform="translate(0.000000,300.000000) scale(0.100000,-0.100000)"
fill="#000000" stroke="none">
<path d="M963 2073 c-13 -2 -32 -16 -43 -30 -17 -23 -20 -40 -20 -145 0 -123
-8 -155 -46 -190 -11 -9 -32 -18 -48 -20 -37 -4 -48 -28 -13 -28 13 0 36 -9
51 -21 48 -38 56 -67 56 -203 0 -123 0 -125 27 -146 21 -17 38 -20 82 -18 33
2 54 7 51 13 -3 6 -22 9 -42 7 -37 -3 -76 11 -90 32 -4 6 -8 64 -8 129 0 130
-12 175 -54 202 l-26 17 24 19 c45 35 56 77 56 207 0 144 5 152 85 152 30 0
57 5 60 10 4 6 -6 10 -24 10 -16 0 -35 2 -43 4 -7 2 -23 1 -35 -1z"/>
<path d="M1828 2072 c-57 -5 -45 -22 15 -22 31 0 61 -6 75 -16 21 -14 22 -21
20 -137 -2 -130 6 -160 51 -201 l21 -20 -29 -30 c-41 -43 -53 -97 -45 -210 7
-93 7 -94 -20 -121 -25 -25 -32 -27 -77 -21 -40 6 -49 4 -49 -9 0 -12 13 -15
60 -15 51 0 65 4 86 25 24 24 24 29 22 147 -2 101 1 129 15 155 18 35 62 63
97 63 30 0 20 24 -11 28 -82 10 -101 48 -103 213 -1 140 -6 153 -61 167 -17 4
-47 6 -67 4z"/>
<path d="M1259 1976 c-39 -19 -51 -53 -44 -128 4 -57 3 -68 -10 -68 -49 0
-135 -72 -135 -113 0 -27 70 -92 114 -107 l36 -11 -7 -59 c-9 -88 19 -140 74
-140 23 0 91 35 121 63 l22 21 28 -27 c29 -28 90 -57 120 -57 10 0 29 12 43
26 21 22 24 35 24 100 l0 75 42 19 c83 37 115 95 79 145 -14 20 -58 46 -107
64 -26 9 -26 11 -17 54 12 58 -4 121 -37 143 -31 20 -82 6 -137 -37 l-37 -29
-43 30 c-56 39 -99 51 -129 36z m329 -24 c19 -13 31 -66 25 -112 l-6 -42 -51
7 c-28 3 -51 7 -51 8 -1 1 -13 19 -28 39 l-27 37 33 25 c28 22 71 44 87 45 3
0 11 -3 18 -7z m-225 -32 l48 -30 -32 -40 c-25 -31 -40 -40 -76 -46 -24 -3
-47 -4 -50 0 -12 12 -15 104 -4 125 17 30 58 27 114 -9z m90 -80 c24 -28 22
-30 -23 -30 -44 0 -48 5 -23 32 20 23 25 23 46 -2z m-133 -65 c0 -4 -7 -20
-16 -37 -16 -31 -27 -29 -38 9 -7 21 -6 22 47 32 4 0 7 -1 7 -4z m208 -50 l33
-55 -34 -57 -33 -58 -62 -3 -62 -3 -35 55 c-19 30 -35 59 -35 63 0 4 14 32 30
61 l30 52 68 0 67 0 33 -55z m70 40 c1 -1 -2 -15 -8 -31 -11 -28 -12 -29 -26
-9 -9 11 -20 28 -26 38 -9 17 -7 18 24 12 18 -4 34 -8 36 -10z m-348 -58 c15
-39 15 -45 -2 -85 -10 -23 -24 -42 -30 -42 -20 0 -97 50 -108 70 -7 14 -7 26
-1 39 11 20 111 75 120 65 3 -3 12 -24 21 -47z m422 34 c94 -40 101 -90 19
-134 -56 -31 -71 -33 -71 -12 0 9 -6 29 -14 44 -13 24 -13 33 2 74 9 26 18 47
19 47 1 0 21 -8 45 -19z m-352 -176 c0 -8 -34 -5 -48 3 -10 7 -10 15 -2 37
l11 29 19 -32 c11 -18 20 -35 20 -37z m274 29 c5 -17 1 -23 -16 -28 -44 -11
-48 -7 -26 30 21 36 31 36 42 -2z m-217 -103 l32 -36 -31 -27 c-18 -15 -48
-33 -67 -39 -31 -11 -36 -10 -53 11 -18 22 -23 74 -12 117 6 20 11 22 53 16
36 -5 53 -14 78 -42z m237 14 c8 -43 -2 -100 -20 -116 -19 -15 -52 -5 -103 31
l-42 31 32 37 c29 33 58 46 110 51 12 1 19 -10 23 -34z m-144 18 c0 -3 -8 -16
-19 -29 l-18 -23 -22 23 c-29 30 -27 33 19 33 22 0 40 -2 40 -4z"/>
<path d="M1394 1722 c-24 -16 -35 -51 -23 -74 16 -30 28 -38 60 -38 52 0 79
69 41 103 -19 18 -59 22 -78 9z m56 -52 c0 -23 -35 -28 -43 -6 -7 18 1 26 25
26 11 0 18 -7 18 -20z"/>
</g>
</svg>
